<?xml version="1.0" encoding="UTF-8" standalone="no"?>
<!-- Created with Inkscape (http://www.inkscape.org/) -->

<svg
   width="323.19891mm"
   height="401.06409mm"
   viewBox="0 0 323.19891 401.06409"
   version="1.1"
   id="svg1874"
   inkscape:version="1.2.1 (9c6d41e410, 2022-07-14)"
   sodipodi:docname="avatar2.svg"
   xmlns:inkscape="http://www.inkscape.org/namespaces/inkscape"
   xmlns:sodipodi="http://sodipodi.sourceforge.net/DTD/sodipodi-0.dtd"
   xmlns="http://www.w3.org/2000/svg"
   xmlns:svg="http://www.w3.org/2000/svg">
  <sodipodi:namedview
     id="namedview1876"
     pagecolor="#ffffff"
     bordercolor="#000000"
     borderopacity="0.25"
     inkscape:showpageshadow="2"
     inkscape:pageopacity="0.0"
     inkscape:pagecheckerboard="0"
     inkscape:deskcolor="#d1d1d1"
     inkscape:document-units="mm"
     showgrid="false"
     inkscape:zoom="0.14866305"
     inkscape:cx="1651.3855"
     inkscape:cy="-941.72694"
     inkscape:window-width="2560"
     inkscape:window-height="1494"
     inkscape:window-x="-11"
     inkscape:window-y="-11"
     inkscape:window-maximized="1"
     inkscape:current-layer="layer1" />
  <defs
     id="defs1871" />
  <g
     inkscape:label="Layer 1"
     inkscape:groupmode="layer"
     id="layer1"
     transform="translate(591.64523,-384.06591)">
    <path
       style="fill:#349ec5;fill-opacity:1;stroke-width:0.264583"
       d="m -546.91078,784.79955 c -7.084,-1.6307 -12.6184,-6.9042 -14.3226,-13.6473 -0.5328,-2.1084 -0.4849,-4.9159 0.8204,-47.9944 0.5031,-16.6045 1.161,-38.703 1.4619,-49.1077 0.6027,-20.838 1.7563,-60.1267 1.9849,-67.6011 0.08,-2.6194 0.4363,-14.6447 0.7915,-26.7229 0.3552,-12.0782 0.7066,-23.5678 0.7809,-25.5323 0.1985,-5.2469 0.5455,-18.8408 0.5455,-21.3695 v -2.1872 l -2.7781,-1.1377 c -6.0696,-2.4857 -12.0888,-7.1145 -16.7437,-12.8764 -3.2505,-4.0235 -6.9406,-10.3076 -9.3221,-15.875 -7.5719,-17.702 -9.9546,-41.7233 -6.2068,-62.574 2.2955,-12.7708 7.6185,-25.8037 14.1867,-34.7347 7.9492,-10.809 17.6074,-17.3749 27.9724,-19.0166 3.8993,-0.6176 9.9453,-0.3747 13.6158,0.5471 7.3488,1.8455 13.5416,5.6533 19.8934,12.2319 11.6561,12.0725 18.9704,30.1558 20.9066,51.688 0.3331,3.7044 0.4141,13.4272 0.1422,17.0656 -1.0785,14.4302 -3.7187,25.7118 -8.5448,36.5125 -4.1109,9.2001 -10.1338,17.1698 -16.7031,22.1023 -2.9399,2.2074 -7.3578,4.6288 -9.9172,5.4356 l -1.4982,0.4723 v 2.0022 c 0,1.1012 0.1153,5.5145 0.254,9.8074 0.1387,4.2928 0.3194,10.1864 0.4017,13.0968 0.082,2.9105 0.4407,15.1739 0.7967,27.2521 0.356,12.0783 0.8898,30.2948 1.1862,40.4813 0.7586,26.0684 2.3416,79.3698 2.5027,84.2698 0.074,2.2555 0.5162,16.8829 0.9823,32.5052 0.7985,26.7662 0.8228,28.5318 0.4205,30.6186 -1.2424,6.4445 -6.1737,11.7194 -13.0282,13.9361 -2.1019,0.6798 -8.2687,0.8848 -10.5834,0.352 z m 230.6991,-0.1498 c -1.0914,-0.2907 -2.9964,-1.0258 -4.2333,-1.6334 -1.8211,-0.8947 -2.7076,-1.5632 -4.6595,-3.5135 -1.9812,-1.9796 -2.6026,-2.8079 -3.4898,-4.652 -0.6058,-1.2592 -1.2662,-3.1779 -1.5054,-4.3734 -0.4521,-2.2604 -0.5113,0.6094 1.0562,-51.1836 0.3425,-11.3155 2.017,-68.2209 2.5108,-85.3281 0.2941,-10.1865 0.8298,-28.6412 1.1905,-41.0104 0.3607,-12.3693 0.7214,-24.7518 0.8015,-27.5167 0.08,-2.7649 0.3193,-10.6735 0.5314,-17.5746 0.2121,-6.9011 0.3566,-12.5672 0.3213,-12.5914 -0.035,-0.024 -0.8243,-0.2522 -1.7532,-0.5068 -13.3049,-3.6465 -23.1699,-14.8165 -26.6025,-30.1214 -1.8428,-8.2161 -1.9285,-10.9216 -1.1051,-34.8527 0.378,-10.9868 0.9266,-27.2984 1.2191,-36.2479 1.2054,-36.8821 1.3623,-40.9234 1.6276,-41.932 0.7437,-2.826 2.8259,-5.3795 5.4231,-6.6502 1.8065,-0.8838 4.9373,-1.1775 5.7808,-0.5423 0.5247,0.3951 0.5303,0.7858 0.6615,45.9943 l 0.1323,45.5958 0.6614,1.1804 c 1.153,2.0574 3.2778,3.0262 5.3053,2.4187 1.3653,-0.4091 2.6009,-1.4903 3.1932,-2.7944 0.465,-1.0236 0.486,-2.9678 0.4926,-45.5192 0.01,-43.8822 0.014,-44.4611 0.5325,-45.3124 1.0517,-1.7248 1.7751,-1.9439 6.1391,-1.8591 l 3.8886,0.076 0.9158,0.8883 c 0.5636,0.5467 1.0273,1.3316 1.206,2.0413 0.205,0.8141 0.289,14.0681 0.2858,45.1028 0,48.5481 -0.1321,44.9351 1.6326,46.4199 2.1482,1.8076 5.184,1.367 6.9436,-1.0076 l 0.5535,-0.7469 0.1323,-45.026 c 0.1265,-43.0767 0.1533,-45.0603 0.6176,-45.8197 1.0257,-1.6774 1.5184,-1.8438 5.7326,-1.9363 3.6533,-0.08 3.881,-0.055 4.7625,0.5345 0.5092,0.3402 1.134,1.033 1.3884,1.5394 0.4349,0.8655 0.463,3.5808 0.4688,45.2385 0.01,42.4237 0.027,44.3634 0.492,45.3869 0.8991,1.9795 3.0953,3.2542 5.01,2.9079 1.4101,-0.255 2.8684,-1.3065 3.4832,-2.5117 0.53,-1.0388 0.5345,-1.4225 0.5345,-46.1826 0,-49.3277 -0.091,-46.4643 1.4836,-46.8594 1.2023,-0.3018 3.7862,0.09 5.2208,0.7922 2.55,1.2476 4.856,4.1316 5.4292,6.7902 0.1399,0.6488 0.3267,3.2632 0.4151,5.8098 0.2014,5.799 1.2882,38.7287 1.9997,60.5896 0.2961,9.095 0.66,20.1083 0.8087,24.4739 0.2972,8.7262 0.1023,13.2058 -0.8069,18.5424 -2.8746,16.8728 -12.0211,28.5785 -25.9069,33.1556 -1.3712,0.452 -2.6512,0.8218 -2.8443,0.8218 -0.4416,0 -0.4847,-2.739 0.4329,27.5167 0.4304,14.1883 0.8504,28.059 0.9334,30.8239 0.1932,6.4325 1.2856,43.9632 1.9871,68.2625 0.2982,10.332 0.9532,32.6562 1.4554,49.6094 0.5023,16.9532 0.9829,33.3243 1.0681,36.3802 0.085,3.056 0.2609,8.8367 0.3905,12.8461 0.2487,7.697 0.1265,9.611 -0.7817,12.2458 -0.8916,2.5866 -2.114,4.436 -4.4916,6.7953 -2.4674,2.4484 -4.5756,3.7317 -7.8275,4.7644 -2.7268,0.866 -8.4736,0.9997 -11.2448,0.2616 z"
       id="path320"
       sodipodi:nodetypes="cssssssscssssssssssssscsscsssssscccsssssssssssssscssscsssccccsscsscssssscssssscsssssssssssssssscc" />
    <text
       xml:space="preserve"
       style="font-size:106.662px;font-family:'Berlin Sans FB';-inkscape-font-specification:'Berlin Sans FB';fill:#333333;fill-opacity:1;stroke-width:3.35941"
       x="-502.54266"
       y="651.50745"
       id="text1573"><tspan
         sodipodi:role="line"
         id="tspan1571"
         style="font-size:106.662px;fill:#333333;fill-opacity:1;stroke-width:3.35942"
         x="-502.54266"
         y="651.50745">AO</tspan></text>
  </g>
</svg>
